<svg width="521" height="469" xmlns="http://www.w3.org/2000/svg" xmlns:xlink="http://www.w3.org/1999/xlink" overflow="hidden"><defs><clipPath id="clip0"><rect x="277" y="101" width="521" height="469"/></clipPath></defs><g clip-path="url(#clip0)" transform="translate(-277 -101)"><path d="M785.838 474.767 590.138 136.078C579.256 117.245 559.766 106 538 106 516.235 106 496.743 117.245 485.861 136.078L290.162 474.766C279.279 493.601 279.279 516.088 290.162 534.922 301.045 553.756 320.535 565 342.301 565L733.698 565C755.463 565 774.954 553.755 785.838 534.923 796.721 516.088 796.721 493.601 785.838 474.767ZM759.86 519.937C754.399 529.388 744.619 535.029 733.698 535.029L342.301 535.029C331.379 535.029 321.599 529.388 316.139 519.937 310.679 510.487 310.679 499.204 316.139 489.754L511.84 151.065C517.3 141.614 527.08 135.973 538 135.973 548.921 135.973 558.701 141.614 564.161 151.065L759.861 489.754C765.32 499.204 765.32 510.487 759.86 519.937Z" stroke="#FF0000" stroke-width="8" stroke-miterlimit="8" fill="#FF0000" fill-rule="evenodd"/><path d="M523 255 553 255 553 405 523 405Z" stroke="#FF0000" stroke-width="8" stroke-miterlimit="8" fill="#FF0000" fill-rule="evenodd"/><path d="M538 435C526.972 435 518 443.972 518 455 518 466.028 526.972 475 538 475 549.027 475 558 466.028 558 455 558 443.972 549.028 435 538 435Z" stroke="#FF0000" stroke-width="8" stroke-miterlimit="8" fill="#FF0000" fill-rule="evenodd"/></g></svg>